<svg width="415" height="415" viewBox="0 0 415 415" fill="none" xmlns="http://www.w3.org/2000/svg">
<path d="M31.5593 353.408C42.3943 353.408 48.9298 356.3 55.2072 361.575L46.8659 371.528C42.2223 367.7 38.0947 365.488 31.1293 365.488C21.4981 365.488 13.8448 373.91 13.8448 384.034L13.8507 384.729C14.0897 395.349 21.5841 403.09 32.0752 403.09C36.8908 403.09 41.1904 401.899 44.5441 399.517V391.01H31.2153V379.695H57.357V405.557C51.1656 410.746 42.6523 415 31.6453 415C12.8989 415 0 401.984 0 384.374L0.00492505 383.641C0.296802 366.968 13.5314 353.408 31.5593 353.408ZM213.261 353.408C231.836 353.408 245.165 367.104 245.165 384.034L245.16 384.761C244.867 401.436 231.46 415 213.09 415C194.515 415 181.186 401.303 181.186 384.374L181.191 383.647C181.484 366.971 194.891 353.408 213.261 353.408ZM288.333 354.429L304.07 396.369L319.806 354.429H334.081L309.745 414.405H298.05L273.714 354.429H288.333ZM123.399 354.429C131.053 354.429 136.986 356.555 140.942 360.469C144.295 363.787 146.101 368.466 146.101 374.08L146.095 374.847C145.882 384.114 140.696 389.962 133.202 392.711L147.907 413.979H132.429L119.53 394.923H109.125V413.979H95.8817V354.429H123.399ZM414.57 354.429V366.084H382.323V378.164H410.7V389.819H382.323V402.324H415V413.979H369.166V354.429H414.57ZM213.09 365.488C202.426 365.488 195.031 373.825 195.031 384.034L195.037 384.697C195.276 394.685 202.77 402.92 213.261 402.92C223.925 402.92 231.32 394.583 231.32 384.374L231.314 383.711C231.075 373.723 223.581 365.488 213.09 365.488ZM122.281 366.254H109.125V383.353H122.539C128.989 383.353 132.686 379.95 132.686 374.931L132.68 374.364C132.497 369.01 128.577 366.254 122.281 366.254ZM182.252 301.981V305.877H174.591V325.901H170.312V305.877H162.651V301.981H182.252ZM201.335 301.981V311.925H212.86V301.981H217.105V325.901H212.86V315.82H201.335V325.901H197.09V301.981H201.335ZM251.578 301.981V305.74H237.913V311.959H250.025V315.718H237.913V322.142H251.751V325.901H233.669V301.981H251.578ZM208.99 0C212.016 0 214.932 1.11633 216.965 3.28415L217.29 3.66266L287.502 91.1524C289.784 93.9957 289.783 97.7997 287.501 100.643C285.729 102.85 282.871 104.134 279.715 104.293L279.2 104.305H264.615L301.523 150.297C303.805 153.14 303.804 156.944 301.522 159.787C299.75 161.995 296.891 163.278 293.736 163.437L293.221 163.449H275.311L312.218 209.427C314.51 212.269 314.516 216.08 312.232 218.928C310.459 221.139 307.598 222.422 304.439 222.582L303.922 222.594L241.082 222.593V249.455C241.082 261.291 231.495 270.886 219.668 270.886H200.824C188.998 270.886 179.411 261.291 179.411 249.455V222.593L114.054 222.594C111.023 222.594 108.104 221.478 106.069 219.307L105.744 218.928C103.61 216.267 103.457 212.733 105.477 209.798L105.752 209.434L142.659 163.449H124.749C121.478 163.45 118.342 162.148 116.447 159.787C114.316 157.132 114.157 153.604 116.167 150.668L116.447 150.297L153.36 104.305H138.777C135.503 104.305 132.365 103.002 130.471 100.638C128.339 97.9794 128.185 94.4483 130.201 91.5135L130.477 91.1476L200.689 3.66242C202.584 1.30187 205.719 0 208.99 0ZM208.99 8.57235C208.167 8.57235 207.519 8.84135 207.367 9.03073L137.871 95.62C138.128 95.6868 138.437 95.7323 138.776 95.7322H171.227L123.843 154.764C124.101 154.831 124.41 154.877 124.748 154.877H160.525L113.145 213.907C113.406 213.976 113.716 214.021 114.053 214.021L187.976 214.021V249.455C187.976 256.557 193.729 262.314 200.824 262.314H219.668C226.764 262.314 232.517 256.557 232.517 249.455V214.021L303.813 214.023L304.112 214.016C304.378 214.003 304.62 213.962 304.828 213.908L257.443 154.877L293.112 154.878L293.41 154.872C293.674 154.858 293.915 154.818 294.122 154.764L246.75 95.7322L279.092 95.7336L279.389 95.7274C279.565 95.7185 279.731 95.6975 279.883 95.6686L280.101 95.6198L210.615 9.03514C210.41 8.81709 209.771 8.57235 208.99 8.57235ZM291.57 35.879C293.56 35.879 295.478 36.604 296.815 38.012L297.028 38.2578L343.198 95.082C344.698 96.9287 344.698 99.3994 343.197 101.246C342.032 102.68 340.152 103.513 338.078 103.617L337.739 103.624H328.148L352.418 133.496C353.918 135.343 353.918 137.813 352.417 139.66C351.252 141.094 349.372 141.927 347.298 142.031L346.959 142.038H335.182L359.451 171.901C360.958 173.747 360.962 176.222 359.46 178.072C358.294 179.508 356.412 180.341 354.335 180.445L353.996 180.452L312.674 180.452V197.899C312.674 198.726 312.601 199.537 312.461 200.324L307.04 193.455L307.041 174.884L353.924 174.886L354.12 174.882C354.295 174.873 354.455 174.846 354.591 174.811L323.432 136.471L346.887 136.472L347.083 136.468C347.257 136.459 347.415 136.433 347.551 136.398L316.401 98.0566L337.668 98.0575L337.863 98.0535C337.979 98.0477 338.088 98.0341 338.188 98.0153L338.331 97.9836L292.639 41.7472C292.505 41.6056 292.084 41.4467 291.57 41.4467C291.029 41.4467 290.604 41.6214 290.504 41.7444L272.699 63.6544L269.092 59.2042L286.112 38.2577C287.358 36.7245 289.42 35.879 291.57 35.879ZM125.349 35.879C127.541 35.879 129.642 36.7243 130.912 38.2572L148.3 59.2509L144.597 63.6687L126.436 41.7431C126.334 41.6201 125.9 41.4454 125.349 41.4454C124.825 41.4454 124.397 41.6044 124.26 41.746L77.6928 97.97L77.8386 98.0017C77.9406 98.0205 78.0517 98.0341 78.1697 98.0399L78.3692 98.0439L100.043 98.043L68.2965 136.376C68.435 136.411 68.5964 136.437 68.7734 136.446L68.9729 136.45L92.8772 136.449L61.1214 174.781C61.2607 174.816 61.4231 174.842 61.6014 174.851L61.8015 174.855L109.582 174.854L109.584 193.465L104.066 200.324C103.919 199.526 103.842 198.703 103.842 197.864V180.421L61.7286 180.421L61.3824 180.413C59.2654 180.31 57.3479 179.476 56.1598 178.041C54.629 176.191 54.6332 173.717 56.169 171.871L80.9026 142.015H68.9003L68.5549 142.008C66.4405 141.904 64.5249 141.071 63.3372 139.637C61.8077 137.791 61.8075 135.321 63.3367 133.475L88.071 103.61H78.2966L77.9511 103.602C75.8367 103.498 73.9212 102.665 72.7335 101.232C71.204 99.3856 71.2037 96.9154 72.733 95.0691L119.787 38.2573L120.004 38.0115C121.367 36.6039 123.321 35.879 125.349 35.879Z" fill="white"/>
</svg>
