<svg xmlns="http://www.w3.org/2000/svg" width="694" height="694" viewBox="0 0 694 694">
  <path fill="#262626" d="M52.7762122,591 C70.8955657,591 81.8246995,595.837017 92.3224202,604.657459 L92.3224202,604.657459 L78.3733941,621.302486 C70.6079569,614.900552 63.705346,611.201657 52.0571902,611.201657 C35.9510982,611.201657 23.1525073,625.285912 23.1525073,642.21547 L23.1525073,642.21547 L23.1623521,643.377316 C23.5620729,661.137851 36.0949026,674.082873 53.6390385,674.082873 C61.6920845,674.082873 68.8823042,672.09116 74.4906755,668.107735 L74.4906755,668.107735 L74.4906755,653.881215 L52.2009946,653.881215 L52.2009946,634.959945 L95.91753,634.959945 L95.91753,678.208564 C85.5636138,686.88674 71.3269789,694 52.9200166,694 C21.5706589,694 0,672.233425 0,642.78453 L0,642.78453 L0.00823610564,641.558229 C0.496338199,613.676773 22.6284201,591 52.7762122,591 Z M356.634894,591 C387.696643,591 409.986324,613.904696 409.986324,642.21547 L409.986324,642.21547 L409.978164,643.431443 C409.489095,671.317627 387.067696,694 356.347286,694 C325.285537,694 302.995856,671.095304 302.995856,642.78453 L302.995856,642.78453 L303.004016,641.568557 C303.493085,613.682373 325.914483,591 356.634894,591 Z M482.176129,592.707182 L508.492333,662.843923 L534.808537,592.707182 L558.680066,592.707182 L517.983423,693.004144 L498.426026,693.004144 L457.729383,592.707182 L482.176129,592.707182 Z M206.359304,592.707182 C219.157895,592.707182 229.080398,596.263812 235.6954,602.808011 C241.303771,608.356354 244.323663,616.180939 244.323663,625.570442 L244.323663,625.570442 L244.312284,626.851945 C243.956413,642.349461 235.284958,652.129575 222.753005,656.726519 L222.753005,656.726519 L247.343556,692.292818 L221.458765,692.292818 L199.888106,660.425414 L182.487775,660.425414 L182.487775,692.292818 L160.341898,692.292818 L160.341898,592.707182 Z M693.280978,592.707182 L693.280978,612.197514 L639.354331,612.197514 L639.354331,632.399171 L686.80978,632.399171 L686.80978,651.889503 L639.354331,651.889503 L639.354331,672.802486 L694,672.802486 L694,692.292818 L617.352259,692.292818 L617.352259,592.707182 L693.280978,592.707182 Z M356.347286,611.201657 C338.515541,611.201657 326.148363,625.143646 326.148363,642.21547 L326.148363,642.21547 L326.158208,643.323788 C326.557929,660.027042 339.090758,673.798343 356.634894,673.798343 C374.466639,673.798343 386.833817,659.856354 386.833817,642.78453 L386.833817,642.78453 L386.823972,641.676212 C386.424251,624.972958 373.891421,611.201657 356.347286,611.201657 Z M204.489847,612.482044 L182.487775,612.482044 L182.487775,641.077348 L204.92126,641.077348 C215.706589,641.077348 221.890178,635.38674 221.890178,626.993094 L221.890178,626.993094 L221.878961,626.045631 C221.572814,617.091469 215.018383,612.482044 204.489847,612.482044 L204.489847,612.482044 Z M304.777692,505 L304.777692,511.514286 L291.966692,511.514286 L291.966692,545 L284.810999,545 L284.810999,511.514286 L272,511.514286 L272,505 L304.777692,505 Z M336.689775,505 L336.689775,521.628571 L355.963981,521.628571 L355.963981,505 L363.061967,505 L363.061967,545 L355.963981,545 L355.963981,528.142857 L336.689775,528.142857 L336.689775,545 L329.591789,545 L329.591789,505 L336.689775,505 Z M420.711464,505 L420.711464,511.285714 L397.859411,511.285714 L397.859411,521.685714 L418.11464,521.685714 L418.11464,527.971429 L397.859411,527.971429 L397.859411,538.714286 L421,538.714286 L421,545 L390.761425,545 L390.761425,505 L420.711464,505 Z M349.490896,0 C354.552056,0 359.427844,1.86682174 362.828185,5.49205167 L363.371272,6.12502377 L480.786203,152.433114 C484.60217,157.187979 484.601595,163.549407 480.784922,168.303723 C477.821187,171.99556 473.041276,174.14139 467.765168,174.407842 L466.903147,174.427381 L442.512724,174.427381 L504.23307,251.339794 C508.049037,256.094659 508.048462,262.456087 504.231789,267.210403 C501.268053,270.90224 496.488142,273.04807 491.212035,273.314522 L490.350014,273.334062 L460.400284,273.334062 L522.118865,350.222194 C525.951312,354.975816 525.961701,361.34748 522.141988,366.11102 C519.177121,369.808487 514.392315,371.954085 509.109682,372.221085 L508.245779,372.240748 L403.158938,372.239905 L403.158938,417.161392 C403.158938,436.954509 387.126351,453 367.349154,453 L335.836543,453 C316.059345,453 300.026759,436.954509 300.026759,417.161392 L300.026759,372.239903 L190.730481,372.240748 C185.662493,372.240748 180.781089,370.374999 177.377956,366.745077 L176.834329,366.11102 C173.266614,361.661744 173.010126,355.751606 176.388645,350.842421 L176.847543,350.234512 L238.566523,273.334062 L208.616695,273.334062 C203.146145,273.335086 197.902856,271.158277 194.733579,267.210403 C191.168722,262.769766 190.902869,256.86957 194.265533,251.960176 L194.732462,251.339591 L256.462152,174.427381 L232.07497,174.427381 C226.600337,174.428759 221.353275,172.24906 218.18448,168.296171 C214.620182,163.849916 214.361887,157.944828 217.734268,153.037028 L218.195648,152.425162 L335.610834,6.12463211 C338.779247,2.17711016 344.021205,0 349.490896,0 Z M349.490896,14.335443 C348.115579,14.335443 347.032434,14.7852989 346.77824,15.1019996 L230.559385,159.904368 C230.98937,160.016013 231.506386,160.092081 232.07317,160.091938 L286.340405,160.091938 L207.102074,258.810954 C207.531988,258.922641 208.048849,258.998725 208.615354,258.998619 L268.44439,258.998619 L189.210541,357.715015 C189.647012,357.82988 190.166507,357.905305 190.730425,357.905305 L314.350672,357.90435 L314.350672,417.161392 C314.350672,429.037262 323.970224,438.664557 335.836543,438.664557 L367.349154,438.664557 C379.215472,438.664557 388.835024,429.037262 388.835024,417.161392 L388.835024,357.904348 L508.063825,357.90762 L508.56329,357.89724 C509.008187,357.874557 509.413459,357.806706 509.76088,357.71633 L430.519537,258.998619 L490.168802,259.000913 L490.666717,258.990642 C491.108369,258.968142 491.511079,258.900655 491.856689,258.810606 L412.637353,160.091938 L466.721936,160.094233 L467.219851,160.083962 C467.514288,160.068962 467.791417,160.033967 468.045858,159.985622 L468.409831,159.903923 L352.209619,15.1093663 C351.866862,14.744727 350.797889,14.335443 349.490896,14.335443 Z M487.589855,60 C490.91794,60 494.12413,61.212492 496.360104,63.5670618 L496.717224,63.9781742 L573.926177,159.004593 C576.435456,162.092856 576.435077,166.224573 573.925334,169.312479 C571.97646,171.71031 568.833317,173.104017 565.363889,173.277076 L564.797046,173.289767 L548.758549,173.289767 L589.344216,223.244019 C591.853495,226.332281 591.853117,230.463999 589.343374,233.551905 C587.3945,235.949736 584.251357,237.343442 580.781928,237.516501 L580.215086,237.529192 L560.520935,237.529192 L601.105442,287.467674 C603.625558,290.555129 603.632389,294.693495 601.120647,297.787392 C599.171029,300.18888 596.024667,301.582435 592.550947,301.755851 L591.982867,301.768621 L522.88054,301.768075 L522.88054,330.94437 C522.88054,332.32775 522.758458,333.682945 522.524364,335 L513.460243,323.512341 L513.461513,292.457197 L591.863219,292.459322 L592.191654,292.45258 C592.484207,292.437848 592.750703,292.393779 592.979158,292.33508 L540.872147,228.218389 L580.095926,228.21988 L580.423342,228.213209 C580.71376,228.198595 580.978571,228.154762 581.205835,228.096276 L529.113295,163.978964 L564.677886,163.980454 L565.005302,163.973783 C565.198916,163.964041 565.381149,163.941312 565.548462,163.909912 L565.787801,163.856849 L489.377616,69.8134626 C489.152228,69.5766311 488.4493,69.3108031 487.589855,69.3108031 C486.685483,69.3108031 485.973236,69.6029824 485.806084,69.808678 L456.031071,106.448594 L450,99.0065067 L478.462693,63.9779199 C480.546158,61.4140229 483.993131,60 487.589855,60 Z M209.620195,60 C213.285794,60 216.798775,61.4137146 218.922137,63.9770526 L218.922137,63.9770526 L248,99.0846522 L241.808614,106.472465 L211.438124,69.8065395 C211.267771,69.6008887 210.541885,69.3087731 209.620195,69.3087731 C208.744292,69.3087731 208.027903,69.5745432 207.798199,69.8113231 L207.798199,69.8113231 L129.924795,163.834206 L130.168717,163.887257 C130.339235,163.91865 130.524957,163.941374 130.722278,163.951115 L130.722278,163.951115 L131.055964,163.957784 L167.3016,163.956294 L114.211513,228.059627 C114.443129,228.1181 114.713011,228.161924 115.008991,228.176534 L115.008991,228.176534 L115.342677,228.183204 L155.317573,228.181714 L102.212736,292.284426 C102.445566,292.343112 102.717166,292.387171 103.01532,292.4019 L103.01532,292.4019 L103.350045,292.40864 L183.253106,292.406516 L183.25546,323.529213 L174.027654,335 C173.781936,333.664416 173.65371,332.289378 173.65371,330.885298 L173.65371,330.885298 L173.65371,301.715363 L103.228106,301.71591 L102.649147,301.703142 C99.1089073,301.529765 95.9022939,300.136513 93.9153421,297.735549 C91.3555012,294.642326 91.3624633,290.504863 93.9308381,287.41808 L93.9308381,287.41808 L135.292519,237.490487 L115.221235,237.490487 L114.643538,237.477799 C111.107671,237.304777 107.904338,235.911375 105.918144,233.514067 C103.360341,230.426834 103.359955,226.296017 105.917286,223.208428 L105.917286,223.208428 L147.280149,173.265067 L130.934522,173.265067 L130.356825,173.252379 C126.820959,173.079358 123.617626,171.685955 121.631432,169.288647 C119.073628,166.201414 119.073243,162.070597 121.630573,158.983008 L121.630573,158.983008 L200.318041,63.9773069 L200.682,63.5662841 C202.960792,61.2122276 206.228378,60 209.620195,60 Z"/>
</svg>
